<?xml version="1.0" encoding="UTF-8"?>
<svg id="a" xmlns="http://www.w3.org/2000/svg" viewBox="0 0 668.25 207.75"><path d="m106.37.12c-.04,1.49-.12,2.98-.12,4.47,0,61.46,0,122.91,0,184.37v4.94c-11.91,1.38-23.62,2.74-35.61,4.13-12.06-35.38-24.09-70.66-36.12-105.94-.22.04-.44.08-.66.11v110.2c-11.12,1.54-21.94,3.04-33.1,4.58V.12c10.49,0,20.97,0,31.46,0,.2.95.29,1.94.61,2.84,13.08,36.58,26.17,73.15,39.28,109.72.23.65.66,1.23,1.43,2.64,0-22.02.02-43.05,0-64.07-.02-17.05-.08-34.09-.12-51.14,10.99,0,21.97,0,32.96,0Z" style="fill:#e40a15; stroke-width:0px;"/><path d="m473.42.12c-.09,25.51.05,51.02-.32,76.53-.5,33.84-1.41,67.68-2.15,101.52-.03,1.23-.17,2.45-.28,3.95-4.72-.48-9.23-.99-13.76-1.39-3.72-.32-7.46-.76-11.18-.68-2.68.06-4-.88-5.06-3.27-12.58-28.42-25.25-56.81-37.9-85.2-.2-.44-.44-.86-1.62-1.25.41,29.91.82,59.83,1.24,90.13-11.58.56-22.99,1.12-34.59,1.68V.12c10.49,0,20.97,0,31.46,0,.17.94.2,1.94.54,2.82,12.28,32.03,24.56,64.05,36.92,96.05,1.48,3.84,3.35,7.53,5.25,11.75-.51-37.34-1.01-73.98-1.5-110.62,10.99,0,21.97,0,32.96,0Z" style="fill:#e40a15; stroke-width:0px;"/><path d="m668.17,207c-11.57-1.79-23.16-3.5-34.69-5.48-1.15-.2-2.43-1.91-2.94-3.2-6.94-17.67-13.76-35.38-20.62-53.08-.38-.99-.8-1.97-1.41-3.45-7.98,18.42-15.76,36.4-23.53,54.35-11.7-1.31-23.17-2.6-35.05-3.93,4.42-10.1,8.61-19.75,12.85-29.38,9.1-20.68,18.17-41.36,27.37-61.99,1.16-2.59,1.08-4.75.06-7.36-11.75-29.92-23.4-59.88-35.04-89.84-.43-1.12-.58-2.34-.85-3.52,11.74,0,23.47,0,35.21,0,.29,1.18.46,2.4.9,3.52,5.78,14.9,11.6,29.78,17.42,44.66.67,1.72,1.39,3.43,2.29,5.66,5.14-12.3,10.05-23.94,14.86-35.62,2.49-6.04,4.82-12.15,7.22-18.23,11.24,0,22.47-.01,33.71.03.95,0,2.71-.84,2.25,1.47-.45.68-1.03,1.3-1.34,2.03-12.8,30.68-25.62,61.36-38.27,92.11-.7,1.71-.67,4.17-.02,5.92,10.46,28.01,21.05,55.97,31.67,83.92,2.54,6.68,5.3,13.27,7.96,19.91v1.49Z" style="fill:#e40a15; stroke-width:0px;"/><path d="m227.72.12c-.12,7.82-.25,15.63-.35,23.45-.04,2.84,0,5.69,0,8.92h-56.9v43.04h42.71v32.44h-42.85v48.14c18.88-1.16,37.7-2.31,56.79-3.48v31.43c-29.55,2.35-59.2,4.71-89.12,7.09-.1-1.02-.28-1.97-.28-2.92-.01-62.08-.01-124.16,0-186.24,0-.62.08-1.24.12-1.86,29.96,0,59.93,0,89.89,0Z" style="fill:#e40a15; stroke-width:0px;"/><path d="m348.32.12c-.12,8.07-.24,16.13-.34,24.2-.03,2.59,0,5.19,0,8.26h-33.64v148.57h-32.61V32.61h-33.78V.12h100.38Z" style="fill:#e40c17; stroke-width:0px;"/><path d="m526.6.12c-.04,1.49-.12,2.98-.12,4.47,0,60.36,0,120.72,0,181.08v4.62c-10.79-.77-21.28-1.52-32.09-2.29V.12c10.74,0,21.47,0,32.21,0Z" style="fill:#e40a15; stroke-width:0px;"/></svg>